<?xml version="1.0" encoding="UTF-8" standalone="no"?>
<!DOCTYPE svg PUBLIC "-//W3C//DTD SVG 1.1//EN" "http://www.w3.org/Graphics/SVG/1.1/DTD/svg11.dtd">
<svg xmlns="http://www.w3.org/2000/svg" version="1.1" viewBox="0.00 0.00 650.00 200.00">
<path fill="#35cba9" d="
  M 89.05 72.73
  C 109.63 66.45 123.63 46.83 123.84 25.34
  A 0.34 0.34 0.0 0 1 124.18 25.00
  L 169.06 24.98
  A 0.44 0.43 -90.0 0 1 169.49 25.42
  Q 168.93 56.67 151.08 81.43
  C 146.61 87.62 140.82 93.58 135.13 99.27
  A 1.07 1.07 0.0 0 0 135.12 100.78
  C 140.39 106.12 146.08 111.92 150.31 117.65
  Q 168.78 142.62 169.49 174.40
  A 0.65 0.65 0.0 0 1 168.84 175.07
  L 124.40 175.03
  A 0.62 0.62 0.0 0 1 123.78 174.41
  C 123.81 152.45 109.37 134.54 89.11 127.30
  A 0.84 0.84 0.0 0 0 87.99 128.09
  L 88.01 174.62
  A 0.63 0.62 -0.4 0 1 87.38 175.25
  L 60.50 175.25
  Q 60.00 175.25 60.00 174.75
  L 60.00 24.50
  A 0.50 0.50 0.0 0 1 60.50 24.00
  L 87.48 24.00
  A 0.55 0.55 0.0 0 1 88.03 24.55
  L 87.99 71.94
  Q 87.99 73.05 89.05 72.73
  Z"
/>
<path fill="#35cba9" d="
  M 215.00 100.42
  C 226.17 111.13 232.17 124.86 229.30 140.37
  C 226.03 158.01 213.10 170.87 195.35 174.41
  C 191.50 175.18 186.88 175.01 182.57 175.31
  A 1.04 1.03 87.1 0 1 181.46 174.30
  Q 180.41 131.44 151.36 100.44
  A 0.58 0.57 45.4 0 1 151.36 99.65
  Q 180.54 68.58 181.45 25.57
  Q 181.46 25.21 181.82 25.18
  Q 208.35 23.01 222.71 43.29
  C 235.24 60.99 230.90 85.48 215.02 99.53
  A 0.61 0.60 46.5 0 0 215.00 100.42
  Z"
/>
<path fill="#ffffff" d="
  M 377.69 79.94
  C 389.74 65.20 416.25 64.31 428.97 78.64
  Q 429.34 79.06 428.93 79.45
  L 422.19 85.75
  Q 421.72 86.18 421.26 85.75
  C 402.85 68.55 373.80 85.70 383.84 110.67
  C 389.84 125.60 410.39 127.28 421.27 116.47
  Q 421.75 115.99 422.24 116.46
  L 428.90 122.88
  Q 429.31 123.27 428.93 123.69
  C 417.61 136.20 397.45 136.71 384.08 128.17
  C 367.74 117.75 365.81 94.46 377.69 79.94
  Z"
/>
<path fill="#ffffff" d="
  M 438.07 79.34
  C 445.18 70.85 458.62 67.49 468.57 68.66
  C 483.85 70.46 496.11 80.69 498.22 96.30
  C 502.39 127.18 468.39 143.51 444.32 128.17
  C 427.53 117.48 425.72 94.09 438.07 79.34
  Z
  M 486.84 101.16
  A 22.52 22.52 0.0 0 0 464.32 78.64
  A 22.52 22.52 0.0 0 0 441.80 101.16
  A 22.52 22.52 0.0 0 0 464.32 123.68
  A 22.52 22.52 0.0 0 0 486.84 101.16
  Z"
/>
<path fill="#ffffff" d="
  M 542.39 111.19
  A 0.22 0.22 0.0 0 0 542.77 111.19
  L 567.21 69.70
  Q 567.47 69.25 568.00 69.25
  L 576.75 69.25
  Q 577.25 69.25 577.25 69.75
  L 577.25 132.50
  Q 577.25 133.00 576.75 133.00
  L 566.75 133.00
  Q 566.00 133.00 566.00 132.25
  L 566.00 91.71
  A 0.26 0.26 0.0 0 0 565.52 91.58
  L 546.09 124.02
  A 4.28 4.28 0.0 0 1 538.77 124.05
  L 519.32 92.14
  Q 518.75 91.21 518.75 92.29
  L 518.75 132.00
  A 1.00 1.00 0.0 0 1 517.75 133.00
  L 508.00 133.00
  A 0.50 0.50 0.0 0 1 507.50 132.50
  L 507.50 69.75
  Q 507.50 69.25 508.00 69.25
  L 516.74 69.25
  Q 517.26 69.25 517.53 69.70
  L 542.39 111.19
  Z"
/>
<path fill="#ffffff" d="
  M 275.60 105.43
  L 266.59 115.13
  A 0.32 0.32 0.0 0 0 266.50 115.35
  L 266.50 132.68
  A 0.32 0.32 0.0 0 1 266.18 133.00
  L 256.07 133.00
  A 0.32 0.32 0.0 0 1 255.75 132.68
  L 255.75 69.82
  A 0.32 0.32 0.0 0 1 256.07 69.50
  L 266.19 69.50
  A 0.32 0.32 0.0 0 1 266.51 69.82
  L 266.47 99.72
  A 0.32 0.32 0.0 0 0 267.02 99.94
  L 295.49 69.60
  A 0.32 0.32 0.0 0 1 295.72 69.50
  L 308.50 69.50
  A 0.32 0.32 0.0 0 1 308.74 70.04
  L 283.93 97.05
  A 0.32 0.32 0.0 0 0 283.90 97.45
  L 309.34 132.49
  A 0.32 0.32 0.0 0 1 309.08 133.00
  L 297.14 133.00
  A 0.32 0.32 0.0 0 1 296.88 132.87
  L 276.09 105.45
  A 0.32 0.32 0.0 0 0 275.60 105.43
  Z"
/>
<path fill="#ffffff" d="
  M 354.35 100.23
  Q 366.39 103.52 366.50 114.84
  C 366.64 128.53 355.59 132.91 343.76 132.97
  Q 329.98 133.04 316.25 132.99
  A 0.51 0.51 0.0 0 1 315.75 132.48
  L 315.75 70.01
  Q 315.75 69.52 316.24 69.52
  Q 329.92 69.47 343.49 69.50
  C 354.13 69.53 363.37 75.64 362.95 87.12
  C 362.73 93.13 359.92 97.47 354.32 99.55
  A 0.36 0.36 0.0 0 0 354.35 100.23
  Z
  M 326.46 79.54
  L 326.52 95.56
  A 0.21 0.21 0.0 0 0 326.73 95.77
  L 342.59 95.72
  A 9.21 7.20 -0.2 0 0 351.77 88.49
  L 351.77 86.45
  A 9.21 7.20 -0.2 0 0 342.53 79.28
  L 326.67 79.33
  A 0.21 0.21 0.0 0 0 326.46 79.54
  Z
  M 326.47 106.18
  L 326.47 122.66
  A 0.38 0.38 0.0 0 0 326.85 123.04
  L 345.52 123.04
  A 10.01 7.62 -0.0 0 0 355.53 115.42
  L 355.53 113.42
  A 10.01 7.62 0.0 0 0 345.52 105.80
  L 326.85 105.80
  A 0.38 0.38 0.0 0 0 326.47 106.18
  Z"
/>
<circle fill="#35cba9" cx="598.14" cy="123.48" r="10.50"/>
</svg>
